<mxfile host="app.diagrams.net" modified="2021-10-05T15:59:48.583Z" agent="5.0 (Windows NT 10.0; Win64; x64) AppleWebKit/537.36 (KHTML, like Gecko) Chrome/94.0.4606.71 Safari/537.36 Edg/94.0.992.38" etag="iAYAPGHyhgNIKNWhQU2T" version="15.3.5" type="github">
  <diagram id="sKmiouq6wfwrjfkFn2ZE" name="Page-1">
    <mxGraphModel dx="1038" dy="617" grid="1" gridSize="10" guides="1" tooltips="1" connect="1" arrows="1" fold="1" page="1" pageScale="1" pageWidth="827" pageHeight="1169" math="0" shadow="0">
      <root>
        <mxCell id="0" />
        <mxCell id="1" parent="0" />
        <mxCell id="BwjrDJ18q2-7UGY3h4X0-1" value="&lt;font style=&quot;font-size: 13px&quot;&gt;Избиратель&lt;/font&gt;" style="shape=umlActor;verticalLabelPosition=bottom;verticalAlign=top;html=1;outlineConnect=0;rotation=0;strokeWidth=2;" parent="1" vertex="1">
          <mxGeometry x="60" y="140" width="40" height="80" as="geometry" />
        </mxCell>
        <mxCell id="BwjrDJ18q2-7UGY3h4X0-2" value="Администратор" style="shape=umlActor;verticalLabelPosition=bottom;verticalAlign=top;html=1;outlineConnect=0;strokeWidth=2;" parent="1" vertex="1">
          <mxGeometry x="700" y="350" width="40" height="80" as="geometry" />
        </mxCell>
        <mxCell id="BwjrDJ18q2-7UGY3h4X0-5" value="&lt;font style=&quot;font-size: 13px&quot;&gt;Кандидат&lt;/font&gt;" style="shape=umlActor;verticalLabelPosition=bottom;verticalAlign=top;html=1;outlineConnect=0;strokeWidth=2;" parent="1" vertex="1">
          <mxGeometry x="30" y="450" width="40" height="80" as="geometry" />
        </mxCell>
        <mxCell id="BwjrDJ18q2-7UGY3h4X0-8" value="&lt;font style=&quot;font-size: 13px&quot;&gt;Регистрация на&lt;br&gt;платформе&lt;/font&gt;" style="ellipse;whiteSpace=wrap;html=1;strokeWidth=2;" parent="1" vertex="1">
          <mxGeometry x="150" y="40" width="160" height="60" as="geometry" />
        </mxCell>
        <mxCell id="BwjrDJ18q2-7UGY3h4X0-9" value="&lt;font style=&quot;font-size: 13px&quot;&gt;Узнать&lt;br&gt;&lt;font style=&quot;font-size: 13px&quot;&gt;ссылку&lt;br&gt; на платформу&lt;/font&gt;&lt;/font&gt;" style="ellipse;whiteSpace=wrap;html=1;strokeWidth=2;" parent="1" vertex="1">
          <mxGeometry x="390" y="20" width="150" height="60" as="geometry" />
        </mxCell>
        <mxCell id="BwjrDJ18q2-7UGY3h4X0-10" value="" style="endArrow=none;dashed=1;html=1;entryX=0;entryY=0.5;entryDx=0;entryDy=0;exitX=1;exitY=0.5;exitDx=0;exitDy=0;" parent="1" source="BwjrDJ18q2-7UGY3h4X0-8" target="BwjrDJ18q2-7UGY3h4X0-9" edge="1">
          <mxGeometry width="50" height="50" relative="1" as="geometry">
            <mxPoint x="380" y="260" as="sourcePoint" />
            <mxPoint x="440" y="320" as="targetPoint" />
          </mxGeometry>
        </mxCell>
        <mxCell id="BwjrDJ18q2-7UGY3h4X0-12" value="Ввод&lt;br&gt;&lt;font&gt;паспортных&lt;br&gt;&lt;/font&gt;&lt;font&gt;данных&lt;/font&gt;" style="ellipse;whiteSpace=wrap;html=1;strokeWidth=2;" parent="1" vertex="1">
          <mxGeometry x="249" y="110" width="165" height="60" as="geometry" />
        </mxCell>
        <mxCell id="BwjrDJ18q2-7UGY3h4X0-13" value="Выбор кандидата" style="ellipse;whiteSpace=wrap;html=1;strokeWidth=2;" parent="1" vertex="1">
          <mxGeometry x="240" y="190" width="160" height="70" as="geometry" />
        </mxCell>
        <mxCell id="BwjrDJ18q2-7UGY3h4X0-15" value="Оставить голос" style="ellipse;whiteSpace=wrap;html=1;strokeWidth=2;" parent="1" vertex="1">
          <mxGeometry x="150" y="280" width="160" height="60" as="geometry" />
        </mxCell>
        <mxCell id="BwjrDJ18q2-7UGY3h4X0-20" value="" style="endArrow=none;html=1;entryX=0.075;entryY=0.737;entryDx=0;entryDy=0;entryPerimeter=0;" parent="1" source="BwjrDJ18q2-7UGY3h4X0-1" target="BwjrDJ18q2-7UGY3h4X0-8" edge="1">
          <mxGeometry width="50" height="50" relative="1" as="geometry">
            <mxPoint x="390" y="360" as="sourcePoint" />
            <mxPoint x="440" y="310" as="targetPoint" />
          </mxGeometry>
        </mxCell>
        <mxCell id="BwjrDJ18q2-7UGY3h4X0-21" value="" style="endArrow=none;html=1;entryX=0;entryY=0.5;entryDx=0;entryDy=0;" parent="1" source="BwjrDJ18q2-7UGY3h4X0-1" target="BwjrDJ18q2-7UGY3h4X0-12" edge="1">
          <mxGeometry width="50" height="50" relative="1" as="geometry">
            <mxPoint x="390" y="360" as="sourcePoint" />
            <mxPoint x="440" y="310" as="targetPoint" />
          </mxGeometry>
        </mxCell>
        <mxCell id="BwjrDJ18q2-7UGY3h4X0-22" value="" style="endArrow=none;html=1;entryX=0;entryY=0.5;entryDx=0;entryDy=0;" parent="1" source="BwjrDJ18q2-7UGY3h4X0-1" target="BwjrDJ18q2-7UGY3h4X0-13" edge="1">
          <mxGeometry width="50" height="50" relative="1" as="geometry">
            <mxPoint x="390" y="360" as="sourcePoint" />
            <mxPoint x="440" y="310" as="targetPoint" />
          </mxGeometry>
        </mxCell>
        <mxCell id="BwjrDJ18q2-7UGY3h4X0-23" value="" style="endArrow=none;html=1;entryX=0;entryY=0;entryDx=0;entryDy=0;" parent="1" target="BwjrDJ18q2-7UGY3h4X0-15" edge="1">
          <mxGeometry width="50" height="50" relative="1" as="geometry">
            <mxPoint x="100" y="210" as="sourcePoint" />
            <mxPoint x="440" y="310" as="targetPoint" />
          </mxGeometry>
        </mxCell>
        <mxCell id="BwjrDJ18q2-7UGY3h4X0-24" value="Получение сведений&lt;br&gt;&lt;font&gt;о кандидате&lt;/font&gt;" style="ellipse;whiteSpace=wrap;html=1;strokeWidth=2;" parent="1" vertex="1">
          <mxGeometry x="450" y="190" width="150" height="70" as="geometry" />
        </mxCell>
        <mxCell id="BwjrDJ18q2-7UGY3h4X0-25" value="" style="endArrow=none;dashed=1;html=1;dashPattern=1 3;strokeWidth=2;exitX=1.017;exitY=0.626;exitDx=0;exitDy=0;exitPerimeter=0;entryX=0;entryY=0.5;entryDx=0;entryDy=0;" parent="1" source="BwjrDJ18q2-7UGY3h4X0-13" target="BwjrDJ18q2-7UGY3h4X0-24" edge="1">
          <mxGeometry width="50" height="50" relative="1" as="geometry">
            <mxPoint x="390" y="350" as="sourcePoint" />
            <mxPoint x="440" y="300" as="targetPoint" />
          </mxGeometry>
        </mxCell>
        <mxCell id="BwjrDJ18q2-7UGY3h4X0-27" value="Регистрация на&amp;nbsp;&lt;br&gt;&lt;font&gt;платформе&lt;/font&gt;" style="ellipse;whiteSpace=wrap;html=1;strokeWidth=2;" parent="1" vertex="1">
          <mxGeometry x="340" y="350" width="160" height="60" as="geometry" />
        </mxCell>
        <mxCell id="BwjrDJ18q2-7UGY3h4X0-28" value="Выдвинуть&amp;nbsp;&lt;br&gt;&lt;font&gt;кандидата&lt;/font&gt;" style="ellipse;whiteSpace=wrap;html=1;strokeWidth=2;" parent="1" vertex="1">
          <mxGeometry x="340" y="430" width="160" height="60" as="geometry" />
        </mxCell>
        <mxCell id="BwjrDJ18q2-7UGY3h4X0-29" value="" style="endArrow=none;html=1;entryX=1;entryY=0.5;entryDx=0;entryDy=0;" parent="1" source="BwjrDJ18q2-7UGY3h4X0-2" target="BwjrDJ18q2-7UGY3h4X0-27" edge="1">
          <mxGeometry width="50" height="50" relative="1" as="geometry">
            <mxPoint x="390" y="530" as="sourcePoint" />
            <mxPoint x="350" y="410" as="targetPoint" />
          </mxGeometry>
        </mxCell>
        <mxCell id="BwjrDJ18q2-7UGY3h4X0-30" value="" style="endArrow=none;html=1;entryX=1;entryY=0.5;entryDx=0;entryDy=0;" parent="1" source="BwjrDJ18q2-7UGY3h4X0-2" target="BwjrDJ18q2-7UGY3h4X0-28" edge="1">
          <mxGeometry width="50" height="50" relative="1" as="geometry">
            <mxPoint x="390" y="530" as="sourcePoint" />
            <mxPoint x="440" y="480" as="targetPoint" />
          </mxGeometry>
        </mxCell>
        <mxCell id="BwjrDJ18q2-7UGY3h4X0-31" value="Агитация" style="ellipse;whiteSpace=wrap;html=1;strokeWidth=2;" parent="1" vertex="1">
          <mxGeometry x="140" y="450" width="180" height="60" as="geometry" />
        </mxCell>
        <mxCell id="BwjrDJ18q2-7UGY3h4X0-32" value="" style="endArrow=none;html=1;entryX=0;entryY=0.5;entryDx=0;entryDy=0;" parent="1" source="BwjrDJ18q2-7UGY3h4X0-5" target="BwjrDJ18q2-7UGY3h4X0-31" edge="1">
          <mxGeometry width="50" height="50" relative="1" as="geometry">
            <mxPoint x="390" y="530" as="sourcePoint" />
            <mxPoint x="440" y="480" as="targetPoint" />
          </mxGeometry>
        </mxCell>
        <mxCell id="BwjrDJ18q2-7UGY3h4X0-33" value="Соответствовать&amp;nbsp;&lt;br&gt;&lt;font&gt;условиям для&amp;nbsp;&lt;br&gt;&lt;/font&gt;&lt;font&gt;участия в выборах&lt;/font&gt;" style="ellipse;whiteSpace=wrap;html=1;strokeWidth=2;" parent="1" vertex="1">
          <mxGeometry x="150" y="530" width="170" height="70" as="geometry" />
        </mxCell>
        <mxCell id="BwjrDJ18q2-7UGY3h4X0-34" value="" style="endArrow=none;html=1;entryX=0;entryY=0.5;entryDx=0;entryDy=0;" parent="1" source="BwjrDJ18q2-7UGY3h4X0-5" target="BwjrDJ18q2-7UGY3h4X0-33" edge="1">
          <mxGeometry width="50" height="50" relative="1" as="geometry">
            <mxPoint x="390" y="530" as="sourcePoint" />
            <mxPoint x="440" y="480" as="targetPoint" />
          </mxGeometry>
        </mxCell>
      </root>
    </mxGraphModel>
  </diagram>
</mxfile>
